<?xml version="1.0" encoding="utf-8"?>
<!-- Generator: Adobe Illustrator 19.1.0, SVG Export Plug-In . SVG Version: 6.00 Build 0)  -->
<svg version="1.1" id="Layer_1" xmlns="http://www.w3.org/2000/svg" xmlns:xlink="http://www.w3.org/1999/xlink" x="0px" y="0px"
	 viewBox="0 0 40 40" style="enable-background:new 0 0 40 40;" xml:space="preserve">
<style type="text/css">
	.st0{fill:#808F96;}
	.st1{fill:#F2E5DA;}
</style>
<rect class="st0" width="40" height="40"/>
<path id="Shape-Copy" class="st1" d="M20.2,22.1V18h10.5c0.2,0.7,0.3,1.4,0.3,2.3c0,6.4-4.3,11-10.8,11
	C14,31.2,9,26.2,9,20S14,8.8,20.2,8.8c3,0,5.6,1.1,7.5,2.9l-3.2,3.1c-0.8-0.8-2.2-1.7-4.3-1.7c-3.7,0-6.7,3.1-6.7,6.9s3,6.9,6.7,6.9
	c4.3,0,5.9-3,6.2-4.7L20.2,22.1L20.2,22.1z"/>
</svg>