<?xml version="1.0" encoding="utf-8"?>
<!-- Generator: Adobe Illustrator 19.1.0, SVG Export Plug-In . SVG Version: 6.00 Build 0)  -->
<svg version="1.1" id="Layer_1" xmlns="http://www.w3.org/2000/svg" xmlns:xlink="http://www.w3.org/1999/xlink" x="0px" y="0px"
	 viewBox="0 0 200 200" style="enable-background:new 0 0 200 200;" xml:space="preserve">
<style type="text/css">
	.st0{fill:#2C3133;}
	.st1{fill:#F2E5DA;}
</style>
<rect class="st0" width="200" height="200"/>
<g>
	<rect x="52.3" y="83" class="st1" width="20.7" height="66.7"/>
	<path class="st1" d="M62.7,73.8c-6.6,0-12-5.4-12-12c0-6.6,5.4-12,12-12c6.6,0,12,5.4,12,12C74.7,68.5,69.3,73.8,62.7,73.8z"/>
	<path class="st1" d="M150.7,149.6H130v-32.4c0-7.7-0.1-17.7-10.8-17.7c-10.8,0-12.4,8.4-12.4,17.1v33H86.1V83h19.9v9.1h0.3
		c2.8-5.2,9.5-10.8,19.6-10.8c21,0,24.9,13.8,24.9,31.8V149.6z"/>
</g>
</svg>
