<?xml version="1.0" encoding="UTF-8"?> <svg xmlns="http://www.w3.org/2000/svg" xmlns:xlink="http://www.w3.org/1999/xlink" id="Layer_1" data-name="Layer 1" viewBox="0 0 600 600"> <defs> <style>.cls-1{fill:url(#linear-gradient);}.cls-2{fill:#fff;}</style> <linearGradient id="linear-gradient" x1="164.06" y1="-61.67" x2="435.94" y2="661.67" gradientUnits="userSpaceOnUse"> <stop offset="0.1" stop-color="#ff573d"></stop> <stop offset="1" stop-color="#bf30b8"></stop> </linearGradient> </defs> <title>Artboard 1</title> <rect class="cls-1" width="600" height="600"></rect> <path class="cls-2" d="M201.78,337.8h18.74L202,314.67a27.44,27.44,0,0,0-10.53-52.77H155.83v75.9h14.63v-21H185Zm-31.33-61.27h21a12.81,12.81,0,1,1,0,25.62h-21Zm348.3,61.27H537.5L519,314.67a27.44,27.44,0,0,0-10.53-52.77H472.81v75.9h14.63v-21h14.51Zm-31.33-61.27h21a12.81,12.81,0,0,1,0,25.62h-21Zm-216,62.24A38.92,38.92,0,1,1,299,272.32l-10.35,10.35a24.29,24.29,0,1,0,0,34.35L299,327.37A38.67,38.67,0,0,1,271.45,338.77Zm106.14-76.87v75.9H363V307.16H328.66V337.8H314v-75.9h14.63v30.63H363V261.89Zm31.55,14.63v16h38.41v14.63H409.13v16h47.55V337.8H394.5v-75.9h62.18v14.63Zm-129,23.32a8.69,8.69,0,1,1-8.69-8.69A8.69,8.69,0,0,1,280.14,299.85Zm-138,38H126.52L106.9,285.47,87.28,337.8H71.66l28.46-75.9h13.57Zm-32.5-12H62.5L68,311.15h36.17Z"></path> </svg> 