<?xml version="1.0" encoding="UTF-8"?> <svg xmlns="http://www.w3.org/2000/svg" id="Layer_1" data-name="Layer 1" viewBox="0 0 648 648"> <defs> <style>.cls-1{fill:#1a52a2;}.cls-2{fill:#fff;}</style> </defs> <title> </title> <rect class="cls-1" y="-0.09" width="648" height="648"></rect> <path class="cls-2" d="M254.46,310.8a29.55,29.55,0,0,1-25,13c-17,0-29.88-13.73-29.88-30.49,0-16.93,12.87-30.57,29.88-30.57a29.59,29.59,0,0,1,24.79,12.61l-10.28,7.08a17.46,17.46,0,0,0-14.51-7.77c-9.93,0-17.19,8.29-17.19,18.66s7.26,18.57,17.19,18.57a17.92,17.92,0,0,0,14.85-8.21Z"></path> <path class="cls-2" d="M263.36,263.47h12.7v48.37h22.28V323h-35Z"></path> <path class="cls-2" d="M307.5,263.47h37.66v11.14h-25v13.56H342v11H320.11v12.7h25.82V323H307.5Z"></path> <path class="cls-2" d="M401.3,323H386.1l-13.3-20.56h-2.85V323h-12.7V263.47h24.36c13.47,0,19.78,9.76,19.78,19.52,0,8.46-4.66,16.76-14.85,18.91Zm-31.35-48.37v16.76h10.71c4.92,0,7.51-4.49,7.51-8.38,0-3.71-2.42-8.38-7.17-8.38Z"></path> <path class="cls-2" d="M425.4,323V296l-23-32.56h15l14.34,22.28,14.51-22.28h15L438.27,296.2V323Z"></path> <path class="cls-2" d="M254.46,385.4a29.55,29.55,0,0,1-25,13c-17,0-29.88-13.73-29.88-30.49,0-16.93,12.87-30.57,29.88-30.57A29.59,29.59,0,0,1,254.2,350l-10.28,7.08a17.46,17.46,0,0,0-14.51-7.77c-9.93,0-17.19,8.29-17.19,18.66s7.26,18.57,17.19,18.57a17.92,17.92,0,0,0,14.85-8.21Z"></path> <path class="cls-2" d="M263.36,338.07H301v11.14H276v13.56h21.94v11H276v12.7h25.82v11.14H263.36Z"></path> <path class="cls-2" d="M357.76,397.57H346.45l-20.73-36v36H313.11V338.07h11.57l20.38,35.58V338.07h12.7Z"></path> <path class="cls-2" d="M367.18,338.07H412.1v11.4H396v48.11H383.25V349.47H367.18Z"></path> <path class="cls-2" d="M421.52,338.07h37.66v11.14h-25v13.56h21.94v11H434.13v12.7H460v11.14H421.52Z"></path> <path class="cls-2" d="M515.32,397.57h-15.2L486.82,377H484v20.56h-12.7V338.07h24.36c13.47,0,19.78,9.76,19.78,19.52,0,8.46-4.66,16.76-14.85,18.92ZM484,349.21V366h10.71c4.92,0,7.51-4.49,7.51-8.38,0-3.71-2.42-8.38-7.17-8.38Z"></path> <path class="cls-2" d="M565.25,335.25c0,113-91.63,204.66-204.66,204.66S155.93,448.28,155.93,335.25s91.63-204.66,204.66-204.66S565.25,222.22,565.25,335.25ZM360.59,140.46C253,140.46,165.8,227.67,165.8,335.25S253,530,360.59,530s194.79-87.21,194.79-194.79S468.16,140.46,360.59,140.46Z"></path> <path class="cls-2" d="M565.25,335.25c0,113-91.63,204.66-204.66,204.66S155.93,448.28,155.93,335.25s91.63-204.66,204.66-204.66S565.25,222.22,565.25,335.25ZM360.59,140.46C253,140.46,165.8,227.67,165.8,335.25S253,530,360.59,530s194.79-87.21,194.79-194.79S468.16,140.46,360.59,140.46Z"></path> <path class="cls-2" d="M490.22,319.18q.1-3.29.1-6.61A203.9,203.9,0,0,0,429.44,167a193.25,193.25,0,0,0-22.83-7,194.26,194.26,0,0,1,73.83,152.66c0,2.17,0,4.39-.12,6.61"></path> <path class="cls-2" d="M451.12,415.41A194.7,194.7,0,0,1,296.74,507a193.3,193.3,0,0,0,25.3,6.9,204.83,204.83,0,0,0,140.61-98.53"></path> <path class="cls-2" d="M90.88,312.57c0-107.58,87.21-194.79,194.79-194.79a194.49,194.49,0,0,1,38.29,3.8,205.19,205.19,0,0,1,26.86-3,204,204,0,0,0-65.15-10.64C172.63,107.91,81,199.54,81,312.57,81,405,142.3,483.1,226.46,508.5a205.46,205.46,0,0,1-29.36-22.44A194.72,194.72,0,0,1,90.88,312.57Z"></path> </svg> 