<?xml version="1.0" encoding="UTF-8"?> <svg xmlns="http://www.w3.org/2000/svg" id="Layer_1" data-name="Layer 1" viewBox="0 0 600 600"> <defs> <style>.cls-1{fill:#1f3c66;}.cls-2{fill:#fff;}.cls-3{fill:#9fb043;}</style> </defs> <title>Artboard 1</title> <rect class="cls-1" width="600" height="600"></rect> <path class="cls-2" d="M128.21,269.8H100V213.38a28.21,28.21,0,0,1,28.21,28.21V269.8Z"></path> <path class="cls-2" d="M167.45,269.8H139.24V241.59a28.21,28.21,0,0,1,28.21,28.21"></path> <path class="cls-3" d="M167.45,386.62h0a28.21,28.21,0,0,1-28.21-28.21V280.83h28.21V386.62Z"></path> <path class="cls-3" d="M128.21,358.41h0A28.21,28.21,0,0,1,100,330.2V280.83h28.21v77.57Z"></path> <polygon class="cls-3" points="214.22 358.4 205.39 358.4 196.56 358.4 196.56 319.67 196.56 280.93 205.39 280.93 214.22 280.93 229.62 304.97 245.02 329.01 245.12 329.01 245.21 329.01 245.21 304.97 245.21 280.93 254.04 280.93 262.87 280.93 262.87 319.67 262.87 358.4 254.04 358.4 245.21 358.4 229.81 334.36 214.41 310.32 214.31 310.32 214.22 310.32 214.22 334.36 214.22 358.4"></polygon> <path class="cls-3" d="M337,337.65l3.76,7.51,3.76,7.51a27.65,27.65,0,0,1-6.42,3.57,49.05,49.05,0,0,1-19,3.57,43.24,43.24,0,0,1-29.19-11.69A38.78,38.78,0,0,1,277,319.81a39.2,39.2,0,0,1,12.75-28.49A43,43,0,0,1,319,279.52a49.05,49.05,0,0,1,19,3.57,27.61,27.61,0,0,1,6.42,3.57l-3.76,7.51L337,301.68a22.56,22.56,0,0,0-4.23-2.39,27.05,27.05,0,0,0-11-2.39c-8.88,0-15.26,3.1-19.43,7.49a22.14,22.14,0,0,0,0,30.55c4.17,4.4,10.55,7.5,19.43,7.5a27,27,0,0,0,11-2.4,22.56,22.56,0,0,0,4.23-2.39"></path> <polygon class="cls-3" points="409.29 296.43 393.78 296.43 378.26 296.43 378.26 304.12 378.26 311.82 392.85 311.82 407.43 311.82 407.43 319.57 407.43 327.32 392.85 327.32 378.26 327.32 378.26 335.12 378.26 342.91 393.78 342.91 409.29 342.91 409.29 350.66 409.29 358.4 384.95 358.4 360.61 358.4 360.61 319.67 360.61 280.93 384.95 280.93 409.29 280.93 409.29 288.68 409.29 296.43"></polygon> <path class="cls-3" d="M500,358.4H481l-2.87-7.75-2.86-7.75H445.82L443,350.66l-2.86,7.75h-19l15.64-38.74,15.63-38.74h16.34l15.63,38.74Zm-39.35-53.53h-.19l-4.32,11.27-4.32,11.27h17.47L465,316.14Z"></path> </svg> 