<?xml version="1.0" encoding="UTF-8"?> <svg xmlns="http://www.w3.org/2000/svg" id="Layer_1" data-name="Layer 1" viewBox="0 0 600 600"> <defs> <style>.cls-1{fill:#f9ed32;}</style> </defs> <title>Artboard 1</title> <rect class="cls-1" width="600" height="600"></rect> <path d="M258.3,123.3q-7.7,14.1-14,42.9-5.2,23.6-4.8,28.6a4.18,4.18,0,0,0,.1,2,4.86,4.86,0,0,1,.2,1.8q-.7,4.7-2.7,5-1.6.3-10-3.5-8.7-3.7-9.3-5.5-.1-.2-.3-6.2a128.86,128.86,0,0,1-5.7-26.8q-2.8,7.2-5.5,14.4a45,45,0,0,0-2.4,15.5,7.09,7.09,0,0,0,0,2.4,6.57,6.57,0,0,1,.1,2.5q-.9,4.3-2.8,4.9a5.23,5.23,0,0,1-1.6.2,31,31,0,0,1-10.4-2.1q-7.1-2.5-8.1-6a45.91,45.91,0,0,0-.2-5.2,207.7,207.7,0,0,1-6.3-31,243.89,243.89,0,0,1-1.3-32.3q-.9-4.7-.5-5.9,1.3-4.3,3.6-4.2,2.6.1,8.3,3.1t6.1,4.8a52.82,52.82,0,0,1-.3,5.7q-.4,4.6-.4,8.5,0,8.5,2.9,27.8l14-43.9a15.88,15.88,0,0,1,1.2-3.6,4.74,4.74,0,0,1,3-1.8q1.1-.2,8,3.15t7,4.65q0,.7-.2,6.7-.3,7.1-.3,12.4a133.67,133.67,0,0,0,1.6,22.3q2.7-13.8,7-28.5a153.52,153.52,0,0,1,5.1-15.9q1.1-5,5.3-4.4a28.3,28.3,0,0,1,7.4,2.3Q257.4,120.5,258.3,123.3Z"></path> <path d="M321.9,159.8q-.1,1.4-2.35,3.45t-3.25,2.05a8,8,0,0,0-1.7.1v25.2a31.57,31.57,0,0,1,1,3.7q.9,6.4-1.5,7.5a4.28,4.28,0,0,1-1.5.2q-3.5,0-9-2.5-5.9-2.6-7.2-5.2l-.3-2.7q-.2-.7.7-1.9a4.39,4.39,0,0,0,.9-1.5V168q-1.9.2-7.5,1.5a67.29,67.29,0,0,0-7.4,2v20.3a3.07,3.07,0,0,0,.65,1.65,4.63,4.63,0,0,1,.75,1.45q-.4,1.6-.7,3.1a1.89,1.89,0,0,1-1.1,1.4q-1.6.6-8.95-1.85t-7.75-4a7,7,0,0,1-.2-2.4,22.11,22.11,0,0,0,.3-2.8v-64a28.73,28.73,0,0,1,.9-5.5q.2-1,3.4-2.8a3.44,3.44,0,0,1,1.1-.1,27.78,27.78,0,0,1,7.8,1.2q5.3,1.6,5.6,4.2a9.22,9.22,0,0,1-.85,3.4,12.07,12.07,0,0,0-1,3.4v24.4q6.8-1.7,14.9-3.5V121.2a9.23,9.23,0,0,0-.45-1.5,3.81,3.81,0,0,1-.25-2.1q.5-1.8,3.3-2.3,2.1-.3,4.2-.5t6.45,1.3q4.25,1.6,4.75,3.4a3.32,3.32,0,0,1-.4,2.1,7.75,7.75,0,0,0-.7,2.8V152q.5.6,4.7,4.3Q322,158.7,321.9,159.8Z"></path> <path d="M364.5,200.6a12.71,12.71,0,0,1-4.7-.55q-2.6-.75-5.1-1.55-3-.8-9.4-2.9-8-3.5-12.1-13.8-3.6-9.1-3.6-22a100.2,100.2,0,0,1,3.6-24.5q4.9-18.8,12.7-18.8a7.82,7.82,0,0,1,2,.35,16,16,0,0,0,2,.45q7.4-2.1,9.5-2.1c.67,0,1.33,0,2,.1q12,1.5,18.9,15,6.2,12.2,6.2,29.1,0,16-5.6,27.5Q374.8,199.4,364.5,200.6Zm-1.8-73.3q-2.2-.6-4.35,5.9T354,139.7a3.29,3.29,0,0,1-1.45-.55,5,5,0,0,0-1.55-.65q-3.4,7.5-3.4,21.4a66.63,66.63,0,0,0,2.3,18.7q2.6,8.7,7.2,9.6,5.4,1,8.7-11.1a96.32,96.32,0,0,0,2.9-25.2,77.53,77.53,0,0,0-1.5-16.6Q365.6,128.1,362.7,127.3Z"></path> <path d="M240.7,313.5q-.1.9-.4,4.3a4.82,4.82,0,0,1-.8,2.7,3.52,3.52,0,0,1-1.7.3,26,26,0,0,1-8.2-1.7q-5.3-1.6-7.2-3.8-.8-.9-1.6-6a80.71,80.71,0,0,0-2.5-11.1,74.36,74.36,0,0,0-11.1,2.75q-7.3,2.25-9.5,3.75-1.5,4.3-4,10.6-.3,1.4-.65,2.65A3.47,3.47,0,0,1,191.3,320a1.64,1.64,0,0,1-.9.2q-2.4,0-8-2.5t-5.85-3.3q-.4-1.4,1.9-6.9,3.2-8,3.7-9.8a6.05,6.05,0,0,1-2.1-4.2,6.67,6.67,0,0,1,.1-1.1q.2-1.2,6.1-4.3L199.1,244a17,17,0,0,0,.1-4.4q-.2-2.7.6-3.4a3.73,3.73,0,0,1,2.4-.5q4.7,0,13.4,2.4t10.4,4.3q.6,11.1,4.5,33.3Q235.5,303.1,240.7,313.5Zm-26.1-30.4q-1.3-6.3-1.6-8.3a129.88,129.88,0,0,1-1.5-13.9q-2,4.9-4.7,13.6-2.9,9.1-3.1,11.4A94.59,94.59,0,0,1,214.6,283.1Z"></path> <path d="M304.5,305.7q.9,1.7-3.55,8.35t-7.45,6.55a6,6,0,0,1-5.1-3.4,13.39,13.39,0,0,0-1.5-2.9l-21.1-19.7v18.5a6.64,6.64,0,0,0,.85,2.8,6.55,6.55,0,0,1,.85,2.5q0,3-3.9,3.3a29.49,29.49,0,0,1-8.9-1.1q-6.4-1.4-6.4-3a5.08,5.08,0,0,1,.25-1.35,7.79,7.79,0,0,0,.25-2.15V244.3a2.57,2.57,0,0,0-.3-1.25,2,2,0,0,1-.3-.85q.1-2.7,4-3.2,1.2-.2,5.45,1a22.2,22.2,0,0,0,6.05,1q1.7-.1,6.95-2.75a21,21,0,0,1,9.15-2.65,16.84,16.84,0,0,1,3.1.3,11.32,11.32,0,0,1,5.1,2.6q2.3,2,4.4,4,5.5,5.2,5.7,5.5a10.93,10.93,0,0,1,2.8,6.7q.6,11.6-19.8,29.8,4.2,3.8,18.5,18.5a19,19,0,0,1,2.6,1.2A15,15,0,0,1,304.5,305.7Zm-22.1-55.9q-4.7,0-16.6,9.8v15.3q4.3-1.7,11.3-10.3t7-12.8Q284.1,249.8,282.4,249.8Z"></path> <path d="M356.4,306.5a8.86,8.86,0,0,1-1.75,3.65,6.54,6.54,0,0,1-2.55,2.35q-.3.1-1.1-.35a2.87,2.87,0,0,0-1.3-.45.9.9,0,0,0-.4.1,39.44,39.44,0,0,0-6.2,2.4,58.25,58.25,0,0,0-13.6,8.7q-10-4.1-10.9-4.5-6.2-2.7-6.2-4V239.2q0-.7,2.35-2a7.1,7.1,0,0,1,3.45-1.2,21.77,21.77,0,0,1,4.8,1.55,16.65,16.65,0,0,0,5.9,1.45q3,0,7.8-2.7,4.4-2.6,5.5-2.2,2.4.8,7.15,5.25t5.15,6.35q.2.9-1.85,3.1T349.3,251a3.23,3.23,0,0,1-1.6-.3c-.33-.2-.57-.27-.7-.2a57.45,57.45,0,0,0-6.7,1.9q-7.4,2.5-10.9,5.8v16.3a68.49,68.49,0,0,1,9.1-3.7q1.6-.2,6.75,4.45t5.15,6.45a4.19,4.19,0,0,1-1.4,2.6,6.5,6.5,0,0,1-2.7,1.9q-1,0-3.5.2-3.8.7-13.4,6.4v10.5q3-1.8,8.15-4.25t6.35-2.45q1.4,0,7.05,4.35T356.4,306.5Z"></path> <path d="M246,363.8q.6,5.2-2.4,6.6a12.52,12.52,0,0,0-1.6.8q-5.8,8.9-15.3,31.3-8.9,21.2-9.3,25.5a9,9,0,0,0,.4,2.8,10.78,10.78,0,0,1,.4,3.3q-.6,6.8-3.4,7.3-1.4.2-6.95-1.5a35.51,35.51,0,0,1-7.45-2.9q-3.4-2.4-3.4-4.8a6.48,6.48,0,0,1,.7-2.7q1.4-3.9,5.9-16-8.3-17.1-11.2-23.6a172.7,172.7,0,0,1-8.2-21.3,5.93,5.93,0,0,0-1.15-1.5,2.8,2.8,0,0,1-.95-1.8q0-1.5,3.9-4.5,8.3-6.4,11.4-6a4.29,4.29,0,0,1,2.9,2.1,6.62,6.62,0,0,1,1.3,2.7,48.6,48.6,0,0,0,.6,6.1q2.3,12.4,9.6,26.9,5.6-13.7,6.3-15.1a116.64,116.64,0,0,1,8.6-15.9,33.19,33.19,0,0,1,1.4-4.1,5.81,5.81,0,0,1,5.4-1.9q2.4.3,7.35,3.5T246,363.8Z"></path> <path d="M281.9,440.6a12.71,12.71,0,0,1-4.7-.55q-2.6-.75-5.1-1.55-3-.8-9.4-2.9-8-3.5-12.1-13.8-3.6-9.1-3.6-22a100.18,100.18,0,0,1,3.6-24.5q4.9-18.8,12.7-18.8a7.84,7.84,0,0,1,2,.35,15.88,15.88,0,0,0,2,.45q7.4-2.1,9.5-2.1c.67,0,1.33,0,2,.1q12,1.5,18.9,15,6.2,12.2,6.2,29.1,0,16-5.6,27.5Q292.2,439.4,281.9,440.6Zm-1.8-73.3q-2.2-.6-4.35,5.9t-4.35,6.5a3.29,3.29,0,0,1-1.45-.55,5,5,0,0,0-1.55-.65Q265,386,265,399.9a66.63,66.63,0,0,0,2.3,18.7q2.6,8.7,7.2,9.6,5.4,1,8.7-11.1a96.32,96.32,0,0,0,2.9-25.2,77.53,77.53,0,0,0-1.5-16.6Q283,368.1,280.1,367.3Z"></path> <path d="M361.7,363.5q.1-1.1.1,19.1,0,57-15.9,58.8a16.48,16.48,0,0,1-6.75-1q-4-1.3-7.75-2.6-3.3-.8-6.65-1.75a10.87,10.87,0,0,1-5.25-3q-4.1-4.5-6.6-19.6a197.82,197.82,0,0,1-2.2-30.8,165,165,0,0,1,1.4-22.9,4.44,4.44,0,0,1,2.9-4q1.1-.4,7.65,1.4t7.65,3.1a2.42,2.42,0,0,1,.5,1.6,9.5,9.5,0,0,1-1,3.55,8,8,0,0,0-.9,3.55q-.5,1.9-.5,11a288.57,288.57,0,0,0,1.6,31.9q2,18.4,5.8,18,4.8-.5,7.2-17.5a218.57,218.57,0,0,0,1.9-30.9q0-11.7-.7-14.7a7,7,0,0,0-.4-3.3,19.2,19.2,0,0,1-.9-2.4,4.54,4.54,0,0,1,2.2-5.1,3.5,3.5,0,0,1,1.7-.3,33.84,33.84,0,0,1,8.4,1.5q5.4,1.5,6.3,2.5Q362.1,360.3,361.7,363.5Z"></path> <path d="M431.1,377.6a20.87,20.87,0,0,1-4.5,14.9q-2.9,3.8-11.4,10.7-8,6.5-10.7,10.7-2,3.2-3.4,2.9-3.4-.7-9.9-8.5a1.62,1.62,0,0,1-.3-1,6.6,6.6,0,0,1,1.6-3.9q2-2.6,11.65-10.8T417.3,380q5.6-7,2.6-11-1.7-2.3-5.6-2.3-6.9,0-17.9,6.3a1.41,1.41,0,0,1-.6.1q-1.5,0-4.5-3.3a35.11,35.11,0,0,1-4-5.4q-.8-1.3.55-3t7.85-4.2a41,41,0,0,1,14.1-2.8,18,18,0,0,1,9.3,2.2Q429.8,363,431.1,377.6Zm-22.3,54.2a1.78,1.78,0,0,1,.2.8,3.74,3.74,0,0,1-1.3,2.15,6.74,6.74,0,0,0-1.6,2.25q-.7,2-1.4,4.1-1.1,3.1-2.8,2.7-4.2-.9-11-7.9a.89.89,0,0,1-.3-1l.4-.8q.7-1.8,1.5-3.6a10.81,10.81,0,0,0,.8-4.3,2.27,2.27,0,0,1,1.25-2.15,5.44,5.44,0,0,1,3-.85q2.3,0,6.4,3.35T408.8,431.8Z"></path> </svg> 