<?xml version="1.0" encoding="utf-8"?>
<!-- Generator: Adobe Illustrator 19.1.0, SVG Export Plug-In . SVG Version: 6.00 Build 0)  -->
<svg version="1.1" id="Layer_1" xmlns="http://www.w3.org/2000/svg" xmlns:xlink="http://www.w3.org/1999/xlink" x="0px" y="0px"
	 viewBox="0 0 200 200" style="enable-background:new 0 0 200 200;" xml:space="preserve">
<style type="text/css">
	.st0{fill:#808F96;}
	.st1{clip-path:url(#SVGID_2_);fill:#CCC2BC;}
	.st2{clip-path:url(#SVGID_2_);fill:#F2E5DA;}
</style>
<rect class="st0" width="200" height="200"/>
<g>
	<defs>
		<rect id="SVGID_1_" x="49.8" y="63.9" width="102" height="71.7"/>
	</defs>
	<clipPath id="SVGID_2_">
		<use xlink:href="#SVGID_1_"  style="overflow:visible;"/>
	</clipPath>
	<polyline class="st1" points="114.4,100.5 90.2,84.3 117.8,98.7 114.4,100.5 	"/>
	<path class="st2" d="M150.7,79.4c0,0-1-7-4.1-10.1c-3.9-4.1-8.2-4.1-10.2-4.3c-14.3-1-35.7-1-35.7-1h0c0,0-21.4,0-35.7,1
		c-2,0.2-6.3,0.3-10.2,4.3c-3.1,3.1-4.1,10.1-4.1,10.1s-1,8.3-1,16.5v7.7c0,8.3,1,16.5,1,16.5s1,7,4.1,10.1c3.9,4.1,9,3.9,11.2,4.4
		c8.2,0.8,34.7,1,34.7,1s21.4,0,35.7-1.1c2-0.2,6.3-0.3,10.2-4.3c3.1-3.1,4.1-10.1,4.1-10.1s1-8.3,1-16.5v-7.7
		C151.8,87.6,150.7,79.4,150.7,79.4 M90.2,113l0-28.7l27.6,14.4L90.2,113z"/>
</g>
</svg>
